# xmcd CD database file
# Generated: Wed Feb 19 09:08:50 2003 by WSPse's MP3c
#
# Track frame offsets:
#       150
#       17653
#       38412
#       63161
#       84648
#       102678
#       122339
#       141766
#       161533
#       180426
#       200598
#       219585
#       237103
#       257436
#       275047
#       289549
#       312583
#       327140
#
# Disc length: 4646 seconds
#
# Revision: 5
# Processed by: cddbd v1.4PL0 Copyright (c) Steve Scherf et al.
# Submitted via: MP3c 0.27
#   WSPse mp3c-0.27 (NLS) - ENGLISH (Jan 20 2003)
#
DISCID=f9122412
DTITLE=Mp4 - unknown
DYEAR=1900
DGENRE=
TTITLE0=1
TTITLE1=2
TTITLE2=3
TTITLE3=4
TTITLE4=5
TTITLE5=6
TTITLE6=7
TTITLE7=8
TTITLE8=9
TTITLE9=10
TTITLE10=11
TTITLE11=12
TTITLE12=13
TTITLE13=14
TTITLE14=15
TTITLE15=16
TTITLE16=17
TTITLE17=18
EXTD=
EXTT0=
EXTT1=
EXTT2=
EXTT3=
EXTT4=
EXTT5=
EXTT6=
EXTT7=
EXTT8=
EXTT9=
EXTT10=
EXTT11=
EXTT12=
EXTT13=
EXTT14=
EXTT15=
EXTT16=
EXTT17=
PLAYORDER=
